<svg width="222" height="54" viewBox="0 0 222 54" fill="none" xmlns="http://www.w3.org/2000/svg">
<path fill-rule="evenodd" clip-rule="evenodd" d="M27.276 13.3853C28.7737 13.3853 29.9877 12.1821 29.9877 10.6978C29.9877 9.21344 28.7737 8.01017 27.276 8.01017C25.7784 8.01017 24.5644 9.21344 24.5644 10.6978C24.5644 12.1821 25.7784 13.3853 27.276 13.3853ZM27.276 11.6809C26.7282 11.6809 26.2841 11.2407 26.2841 10.6978C26.2841 10.1548 26.7282 9.71459 27.276 9.71459C27.8239 9.71459 28.268 10.1548 28.268 10.6978C28.268 11.2407 27.8239 11.6809 27.276 11.6809Z" fill="white"/>
<path fill-rule="evenodd" clip-rule="evenodd" d="M27.4752 27.9801C27.4311 27.9767 27.3867 27.9767 27.3426 27.9801C27.3206 27.9818 27.2984 27.9826 27.276 27.9826C27.2302 27.9826 27.1815 27.983 27.1307 27.9834C26.8731 27.9854 26.5626 27.9878 26.3103 27.9431C26.134 27.9118 25.928 27.851 25.7292 27.7212C25.5235 27.5868 25.3716 27.4086 25.2633 27.2082C25.0706 26.8517 25.0089 26.4044 24.9769 25.9536C24.9744 25.9186 24.972 25.8827 24.9698 25.846C24.955 25.5979 24.734 25.4108 24.4834 25.4012C24.2263 25.3914 23.9773 25.3512 23.7487 25.2967C23.2623 25.1807 22.7696 24.9786 22.341 24.7815C22.1844 24.7095 21.999 24.7346 21.8733 24.8517C21.4914 25.2077 21.0551 25.6554 20.6359 26.1346C19.955 26.9129 19.4024 27.6805 19.1812 28.2033C19.0115 28.6044 18.5618 28.8117 18.143 28.682L17.2922 28.4185C16.9371 28.3085 16.6953 27.9825 16.6953 27.6137V22.4494C16.6953 22.3358 16.7184 22.2234 16.7633 22.119C17.6215 20.1219 19.1838 18.8043 20.3111 18.1266C20.451 18.0425 20.5356 17.8903 20.526 17.7283C20.2897 13.7443 20.437 9.27319 22.0363 5.81445C22.2779 5.29211 22.5409 4.80691 22.8158 4.35803C24.2645 1.99307 26.049 0.62972 26.8112 0.137019C26.9747 0.0313267 27.1613 -0.011465 27.342 0.00259731C27.3865 0.00606505 27.4313 0.00606505 27.4759 0.00259731C27.6565 -0.011465 27.8431 0.0313267 28.0066 0.137019C28.7688 0.62972 30.5534 1.99307 32.002 4.35803C32.277 4.80691 32.54 5.29211 32.7815 5.81445C34.3809 9.27319 34.5282 13.7443 34.2919 17.7283C34.2823 17.8903 34.3668 18.0425 34.5068 18.1266C35.634 18.8043 37.1963 20.1219 38.0545 22.119C38.0994 22.2234 38.1226 22.3358 38.1226 22.4494V27.6137C38.1226 27.9825 37.8807 28.3085 37.5256 28.4185L36.6749 28.682C36.256 28.8117 35.8063 28.6044 35.6366 28.2033C35.4154 27.6805 34.8628 26.9129 34.182 26.1346C33.7627 25.6554 33.3264 25.2077 32.9446 24.8517C32.8188 24.7346 32.6334 24.7095 32.4769 24.7815C32.0482 24.9786 31.5556 25.1807 31.0691 25.2967C30.8405 25.3512 30.5915 25.3914 30.3345 25.4012C30.0839 25.4108 29.8629 25.5979 29.848 25.846C29.8475 25.8536 29.8471 25.8611 29.8466 25.8686C29.8461 25.8777 29.8455 25.8867 29.8449 25.8957C29.8442 25.9063 29.8435 25.9168 29.8428 25.9272C29.8422 25.9361 29.8416 25.9449 29.841 25.9536C29.809 26.4044 29.7473 26.8517 29.5546 27.2082C29.4463 27.4086 29.2944 27.5868 29.0887 27.7212C28.8899 27.851 28.6838 27.9118 28.5075 27.9431C28.2553 27.9878 27.9448 27.9854 27.6871 27.9834C27.6364 27.983 27.5877 27.9826 27.5419 27.9826C27.5194 27.9826 27.4972 27.9818 27.4752 27.9801ZM27.6577 1.96653C27.5115 1.8523 27.3063 1.8523 27.1601 1.96653C26.5967 2.40663 25.82 3.10969 25.0573 4.09382C24.8939 4.30464 24.9784 4.60888 25.2327 4.69337C25.7848 4.8768 26.4721 5.00973 27.2139 4.95594C27.2574 4.95279 27.3003 4.95293 27.3425 4.95615C27.3867 4.95954 27.4312 4.95954 27.4754 4.95615C27.5175 4.95293 27.5605 4.95279 27.604 4.95594C28.3458 5.00973 29.0331 4.8768 29.5851 4.69337C29.8394 4.60888 29.9239 4.30464 29.7605 4.09382C28.9978 3.10969 28.2211 2.40663 27.6577 1.96653ZM27.4753 6.63743C27.4311 6.634 27.3867 6.634 27.3426 6.63743L27.338 6.63777C26.1346 6.72504 25.0493 6.45607 24.2367 6.1237C24.0238 6.03667 23.7743 6.11719 23.6748 6.32297C23.6439 6.387 23.6133 6.45169 23.5831 6.51703C22.066 9.79789 21.9749 14.2783 22.2779 18.4363C22.2921 18.631 22.3071 18.8247 22.3229 19.0173C22.3337 19.1501 22.4077 19.2707 22.5238 19.3378C23.3806 19.833 24.0533 19.9912 24.5326 20.0123C24.7444 20.0216 24.9029 19.8441 24.9268 19.6353C24.9592 19.353 25.0239 19.0599 25.1357 18.7797C25.2782 18.4226 25.5112 18.0533 25.8848 17.7734C26.267 17.487 26.7389 17.3377 27.276 17.3377C27.2984 17.3377 27.3206 17.3385 27.3426 17.3402C27.3867 17.3436 27.4311 17.3436 27.4752 17.3402C27.4972 17.3385 27.5194 17.3377 27.5419 17.3377C28.0789 17.3377 28.5508 17.487 28.9331 17.7734C29.3066 18.0533 29.5396 18.4226 29.6821 18.7797C29.794 19.0599 29.8587 19.353 29.891 19.6353C29.915 19.8441 30.0735 20.0216 30.2853 20.0123C30.7645 19.9912 31.4372 19.833 32.294 19.3378C32.4102 19.2707 32.4841 19.1501 32.495 19.0173C32.5107 18.8247 32.5257 18.631 32.5399 18.4363C32.8429 14.2783 32.7519 9.79789 31.2348 6.51703C31.2046 6.45169 31.174 6.387 31.143 6.32297C31.0435 6.1172 30.794 6.03667 30.5812 6.1237C29.7685 6.45607 28.6832 6.72504 27.4798 6.63777L27.4753 6.63743ZM27.4752 19.0215C27.4311 19.0181 27.3867 19.0181 27.3426 19.0215C27.3206 19.0231 27.2984 19.024 27.276 19.024C27.0686 19.024 26.9667 19.0767 26.9108 19.1186C26.8463 19.1669 26.7769 19.2521 26.7178 19.4C26.5904 19.7192 26.5797 20.1617 26.6283 20.478C26.6348 20.52 26.638 20.5625 26.638 20.6049V24.0303C26.638 24.8513 26.645 25.4249 26.6741 25.8353C26.6885 26.0387 26.7072 26.1822 26.7278 26.2835C26.7291 26.29 26.7348 26.2948 26.7416 26.2951C26.8129 26.2976 26.9074 26.2973 27.0452 26.2968C27.1112 26.2966 27.1879 26.2963 27.276 26.2963C27.2984 26.2963 27.3206 26.2972 27.3426 26.2988C27.3867 26.3022 27.4311 26.3022 27.4752 26.2988C27.4972 26.2972 27.5194 26.2963 27.5419 26.2963C27.6302 26.2963 27.7063 26.2966 27.7724 26.2968C27.9102 26.2973 28.005 26.2976 28.0763 26.2951C28.083 26.2948 28.0887 26.29 28.0901 26.2835C28.1106 26.1822 28.1293 26.0387 28.1437 25.8353C28.1729 25.4249 28.1798 24.8513 28.1798 24.0303V20.6049C28.1798 20.5625 28.1831 20.52 28.1895 20.478C28.2381 20.1617 28.2274 19.7192 28.1 19.4C28.041 19.2521 27.9715 19.1669 27.907 19.1186C27.8511 19.0767 27.7493 19.024 27.5419 19.024C27.5194 19.024 27.4972 19.0231 27.4752 19.0215ZM18.3967 22.7194C18.3967 22.6587 18.4098 22.5986 18.4361 22.5438C18.8734 21.6352 19.4984 20.9099 20.1079 20.3696C20.3545 20.1511 20.7305 20.3164 20.7632 20.6427C20.8494 21.5013 20.9437 22.322 21.034 23.0855C21.0503 23.2235 20.9968 23.3602 20.893 23.4535C20.4089 23.889 19.8594 24.4481 19.3504 25.0299C19.3059 25.0807 19.2614 25.1321 19.217 25.1839C18.949 25.4968 18.3967 25.3133 18.3967 24.9029V22.7194ZM24.1466 23.6571C23.7614 23.5653 23.3622 23.3951 22.9591 23.2054C22.8282 23.1438 22.7392 23.0191 22.7223 22.8764C22.6865 22.5734 22.6502 22.2626 22.6142 21.945C22.5778 21.6247 22.9057 21.3833 23.2168 21.477C23.6733 21.6143 24.0962 21.6829 24.4805 21.6989C24.7269 21.7093 24.9366 21.901 24.9366 22.1455V23.3912C24.9366 23.5513 24.8439 23.7047 24.6829 23.717C24.5438 23.7275 24.3696 23.7103 24.1466 23.6571ZM36.4211 22.7194C36.4211 22.6587 36.4081 22.5986 36.3817 22.5438C35.9444 21.6352 35.3195 20.9099 34.71 20.3696C34.4634 20.1511 34.0874 20.3164 34.0546 20.6427C33.9684 21.5013 33.8742 22.322 33.7839 23.0855C33.7676 23.2235 33.821 23.3602 33.9248 23.4535C34.4089 23.889 34.9585 24.4481 35.4675 25.0299C35.5119 25.0807 35.5564 25.1321 35.6008 25.1839C35.8688 25.4968 36.4211 25.3133 36.4211 24.9029V22.7194ZM30.6713 23.6571C31.0565 23.5653 31.4556 23.3951 31.8587 23.2054C31.9897 23.1438 32.0787 23.0191 32.0955 22.8764C32.1313 22.5734 32.1676 22.2626 32.2037 21.945C32.24 21.6247 31.9122 21.3833 31.601 21.477C31.1446 21.6143 30.7216 21.6829 30.3374 21.6989C30.0909 21.7093 29.8813 21.901 29.8813 22.1455V23.3912C29.8813 23.5513 29.9739 23.7047 30.135 23.717C30.274 23.7275 30.4482 23.7103 30.6713 23.6571Z" fill="white"/>
<path d="M27.0634 44.0028C26.5935 44.0028 26.2127 44.3803 26.2127 44.8459C26.2127 45.3116 26.5935 45.6891 27.0634 45.6891H27.5419C28.0117 45.6891 28.3926 45.3116 28.3926 44.8459C28.3926 44.3803 28.0117 44.0028 27.5419 44.0028H27.0634Z" fill="white"/>
<path fill-rule="evenodd" clip-rule="evenodd" d="M2.23313 8.85333C0.999804 8.85333 0 9.84426 0 11.0666V46.3215C0 47.5438 0.999805 48.5348 2.23313 48.5348H19.9918V52.1709H17.4397C16.9698 52.1709 16.5889 52.5484 16.5889 53.0141C16.5889 53.4798 16.9698 53.8572 17.4397 53.8572H37.2719C37.7418 53.8572 38.1227 53.4798 38.1227 53.0141C38.1227 52.5484 37.7418 52.1709 37.2719 52.1709H34.5603V48.5348H52.3721C53.6055 48.5348 54.6053 47.5438 54.6053 46.3215V11.0666C54.6053 9.84426 53.6055 8.85333 52.3721 8.85333H36.8998C36.4299 8.85333 36.049 9.23083 36.049 9.6965C36.049 10.1622 36.4299 10.5397 36.8998 10.5397H52.3721C52.6658 10.5397 52.9038 10.7756 52.9038 11.0666V26.2173V41.3679H1.70143V11.0666C1.70143 10.7756 1.93948 10.5397 2.23313 10.5397H17.4397C17.9095 10.5397 18.2904 10.1622 18.2904 9.6965C18.2904 9.23083 17.9095 8.85333 17.4397 8.85333H2.23313ZM21.6932 52.1709V48.5348H32.8589V52.1709H21.6932ZM1.70143 43.0542H52.9038V46.3215C52.9038 46.6125 52.6658 46.8484 52.3721 46.8484H2.23313C1.93948 46.8484 1.70143 46.6125 1.70143 46.3215V43.0542Z" fill="white"/>
<path d="M23.3387 37.9266C23.6215 37.6021 24.0327 37.4155 24.4654 37.4155H24.8302C25.3001 37.4155 25.681 37.038 25.681 36.5724C25.681 36.1067 25.3001 35.7292 24.8302 35.7292H24.4654C23.5382 35.7292 22.657 36.129 22.051 36.8244L21.7406 37.1806C21.4335 37.533 21.4728 38.0655 21.8284 38.3699C22.184 38.6742 22.7212 38.6353 23.0283 38.2828L23.3387 37.9266Z" fill="white"/>
<path fill-rule="evenodd" clip-rule="evenodd" d="M18.1808 37.3304C18.2215 36.8665 17.875 36.4577 17.407 36.4174C16.9389 36.3771 16.5265 36.7205 16.4858 37.1845C16.4186 37.9512 16.5911 38.686 16.7887 39.2118C16.8882 39.4763 17.0043 39.7158 17.1225 39.9012C17.1781 39.9885 17.2554 40.0976 17.3536 40.1933C17.4003 40.2387 17.4864 40.3157 17.6093 40.3771C17.7222 40.4335 17.997 40.5396 18.3232 40.4183C18.7632 40.2548 18.9861 39.7688 18.8211 39.3328C18.7614 39.1751 18.6592 39.0455 18.5321 38.9521C18.4915 38.8798 18.4377 38.7683 18.3831 38.6231C18.244 38.2529 18.1418 37.7758 18.1808 37.3304Z" fill="white"/>
<path d="M23.6073 26.876C24.0772 26.876 24.4581 27.2535 24.4581 27.7191C24.4581 30.0797 25.0319 31.3582 25.5568 32.0696C25.823 32.4304 26.0958 32.6717 26.3245 32.8461C26.422 32.9205 26.5078 32.9802 26.5944 33.0405C26.6136 33.0538 26.6329 33.0673 26.6523 33.0808L26.6662 33.0905C26.7426 33.1437 26.9022 33.2548 27.0181 33.3888C27.1 33.4835 27.1883 33.6044 27.276 33.7349C27.3638 33.6044 27.452 33.4835 27.534 33.3888C27.6499 33.2548 27.8095 33.1437 27.8859 33.0905L27.8998 33.0808C27.9191 33.0673 27.9383 33.054 27.9574 33.0406C28.0442 32.9803 28.13 32.9205 28.2276 32.8461C28.4562 32.6717 28.7291 32.4304 28.9953 32.0696C29.5202 31.3582 30.094 30.0797 30.094 27.7191C30.094 27.2535 30.4749 26.876 30.9448 26.876C31.4146 26.876 31.7955 27.2535 31.7955 27.7191C31.7955 30.3649 31.1464 32.0111 30.3686 33.0651C29.9836 33.5869 29.5851 33.9385 29.2654 34.1824C29.1353 34.2817 29.0145 34.3656 28.9272 34.4263L28.9025 34.4435C28.8949 34.4488 28.8877 34.4538 28.8809 34.4586C28.8398 34.4873 28.8151 34.5056 28.8019 34.5154C28.7175 34.6227 28.5722 34.8474 28.4044 35.1331C27.9036 35.9856 26.6484 35.9856 26.1477 35.1331C25.9799 34.8474 25.8346 34.6227 25.7502 34.5154C25.737 34.5056 25.7123 34.4873 25.6712 34.4586C25.6579 34.4492 25.6432 34.4391 25.6275 34.4281L25.6249 34.4263C25.5376 34.3656 25.4168 34.2817 25.2867 34.1824C24.967 33.9385 24.5685 33.5869 24.1834 33.0651C23.4057 32.0111 22.7566 30.3649 22.7566 27.7191C22.7566 27.2535 23.1375 26.876 23.6073 26.876Z" fill="white"/>
<path fill-rule="evenodd" clip-rule="evenodd" d="M19.069 29.6569C18.6758 29.5602 18.2392 29.6015 17.8575 29.815C17.4503 30.0429 17.1256 30.3073 16.8304 30.6242C16.7753 30.6834 16.7126 30.71 16.6564 30.716C16.6011 30.7219 16.5406 30.7095 16.4813 30.6671C15.928 30.2713 14.8588 29.6674 13.7506 30.2385C12.8778 30.6883 12.5765 31.4875 12.53 32.1694C12.5033 32.5607 12.5547 32.9435 12.6368 33.2723C12.6236 33.289 12.6107 33.3056 12.5983 33.322C12.4373 33.5348 12.2914 33.7913 12.1759 34.073C11.9819 34.5462 11.8525 35.1441 11.9258 35.7774C11.3082 36.4483 10.8621 37.4562 11.0106 38.873C11.0592 39.3362 11.4774 39.6726 11.9448 39.6245C12.4121 39.5764 12.7515 39.1618 12.703 38.6987C12.5861 37.5841 13.0131 37.0166 13.4049 36.7089C13.6189 36.5407 13.8411 36.4381 14.0015 36.3847C14.0346 36.3737 14.0624 36.3657 14.0843 36.36C14.1829 36.3667 14.2843 36.3565 14.3846 36.3271C14.8351 36.1949 15.0922 35.7257 14.9588 35.2792C14.8358 34.8673 14.482 34.7384 14.4139 34.7148C14.3009 34.6756 14.2034 34.6676 14.1588 34.665C14.0585 34.6592 13.9671 34.6687 13.9053 34.6773C13.8568 34.6841 13.806 34.6933 13.7535 34.7047C13.818 34.548 13.8934 34.4212 13.9596 34.3337C14.0002 34.2799 14.0267 34.2549 14.0346 34.2475C14.066 34.2296 14.0963 34.2098 14.1252 34.1881C14.1345 34.1838 14.148 34.1778 14.1663 34.1706C14.232 34.1444 14.3269 34.1138 14.4396 34.087C14.6823 34.0295 14.9016 34.0146 15.024 34.0332C15.4884 34.104 15.9227 33.7883 15.9942 33.3281C16.0656 32.8678 15.7471 32.4373 15.2827 32.3665C14.9236 32.3118 14.542 32.3473 14.2246 32.4082C14.2238 32.3661 14.2248 32.3243 14.2276 32.2832C14.2475 31.9911 14.345 31.8328 14.5356 31.7346C14.6218 31.6902 14.7214 31.6755 14.8795 31.7179C15.0546 31.7649 15.2609 31.8738 15.4855 32.0345C16.3081 32.6229 17.4085 32.4897 18.0807 31.768C18.2591 31.5764 18.4404 31.4285 18.6711 31.2965C19.3708 31.4699 19.7234 31.6949 19.8942 31.8702C20.0454 32.0253 20.0927 32.1788 20.089 32.3554C20.0794 32.8027 19.73 33.3959 19.3156 33.8376C18.9957 34.1786 19.0152 34.7122 19.3593 35.0293C19.7034 35.3463 20.2417 35.3269 20.5616 34.9859C21.0584 34.4564 21.767 33.4733 21.79 32.3911C21.8026 31.803 21.6099 31.2034 21.1181 30.6988C20.647 30.2152 19.9568 29.875 19.069 29.6569ZM14.1419 36.3473C14.1449 36.3469 14.1443 36.347 14.1406 36.3475L14.1419 36.3473ZM14.1117 34.1947C14.1083 34.1965 14.1081 34.1968 14.1117 34.1947V34.1947Z" fill="white"/>
<path d="M33.9351 32.1424C33.8919 32.1532 33.8482 32.164 33.8037 32.1747C33.3471 32.2844 32.8872 32.0065 32.7765 31.5539C32.6658 31.1014 32.9462 30.6456 33.4028 30.5359C33.4291 30.5295 33.4603 30.5215 33.496 30.5123C33.781 30.4387 34.3517 30.2914 35.0009 30.3586C35.5762 30.4181 36.1807 30.6355 36.768 31.1036C37.4146 30.6281 38.4162 30.1507 39.6869 30.4262C40.8281 30.6736 41.5771 31.398 41.9679 32.252C42.3468 33.0797 42.3931 34.0272 42.1913 34.8271C42.1888 34.8369 42.1862 34.8467 42.1834 34.8564C42.5443 35.1091 42.8344 35.4215 43.0578 35.7828C43.6853 36.7979 43.6446 37.9894 43.5365 38.7005C43.4665 39.161 43.0331 39.478 42.5685 39.4086C42.1039 39.3392 41.784 38.9097 41.854 38.4493C41.9409 37.8781 41.9214 37.1724 41.607 36.6637C41.3468 36.2429 40.7463 35.74 39.1291 35.8332C38.66 35.8602 38.2577 35.5053 38.2304 35.0404C38.2032 34.5755 38.5613 34.1767 39.0303 34.1497C39.6042 34.1166 40.1199 34.1441 40.5799 34.2251C40.6458 33.8052 40.5967 33.3379 40.4185 32.9486C40.2244 32.5246 39.8835 32.1951 39.3233 32.0736C38.4328 31.8805 37.7488 32.4274 37.3539 32.8351C37.1878 33.0066 36.9562 33.1007 36.7163 33.094C36.4764 33.0873 36.2505 32.9805 36.0943 32.7999C35.5899 32.2166 35.1475 32.0693 34.8242 32.0358C34.4997 32.0022 34.23 32.0692 33.9351 32.1424Z" fill="white"/>
<path d="M33.7111 37.1389C33.2934 36.7652 32.6616 36.509 31.7713 36.7095C31.3132 36.8127 30.8574 36.5283 30.7532 36.0742C30.6491 35.6201 30.9361 35.1683 31.3943 35.0651C32.8435 34.7387 34.0371 35.1587 34.8513 35.8873C35.6263 36.5809 36.0748 37.5735 36.0487 38.442C36.0346 38.9074 35.6426 39.2735 35.1729 39.2596C34.7033 39.2457 34.334 38.8571 34.348 38.3916C34.3573 38.0831 34.1677 37.5476 33.7111 37.1389Z" fill="white"/>
<path d="M83.8699 22.408C83.8699 23.6093 83.5866 24.7427 83.0199 25.808C82.4532 26.8733 81.5466 27.746 80.2999 28.426C79.0532 29.0833 77.4552 29.412 75.5059 29.412H71.2219V39H67.3459V15.37H75.5059C77.3192 15.37 78.8492 15.6873 80.0959 16.322C81.3652 16.934 82.3059 17.7727 82.9179 18.838C83.5526 19.9033 83.8699 21.0933 83.8699 22.408ZM75.5059 26.25C76.9792 26.25 78.0786 25.9213 78.8039 25.264C79.5292 24.584 79.8919 23.632 79.8919 22.408C79.8919 19.824 78.4299 18.532 75.5059 18.532H71.2219V26.25H75.5059ZM86.2746 29.616C86.2746 27.6893 86.6599 26.0007 87.4306 24.55C88.2239 23.0767 89.3119 21.9433 90.6946 21.15C92.0773 20.3567 93.6639 19.96 95.4546 19.96C97.7213 19.96 99.5913 20.504 101.065 21.592C102.561 22.6573 103.569 24.1873 104.091 26.182H99.9086C99.5686 25.2527 99.0246 24.5273 98.2766 24.006C97.5286 23.4847 96.5879 23.224 95.4546 23.224C93.8679 23.224 92.5986 23.7907 91.6466 24.924C90.7173 26.0347 90.2526 27.5987 90.2526 29.616C90.2526 31.6333 90.7173 33.2087 91.6466 34.342C92.5986 35.4753 93.8679 36.042 95.4546 36.042C97.6986 36.042 99.1833 35.056 99.9086 33.084H104.091C103.547 34.988 102.527 36.5067 101.031 37.64C99.5346 38.7507 97.6759 39.306 95.4546 39.306C93.6639 39.306 92.0773 38.9093 90.6946 38.116C89.3119 37.3 88.2239 36.1667 87.4306 34.716C86.6599 33.2427 86.2746 31.5427 86.2746 29.616ZM120.227 39L114.787 29.548H111.829V39H107.953V15.37H116.113C117.927 15.37 119.457 15.6873 120.703 16.322C121.973 16.9567 122.913 17.8067 123.525 18.872C124.16 19.9373 124.477 21.1273 124.477 22.442C124.477 23.9833 124.024 25.3887 123.117 26.658C122.233 27.9047 120.862 28.7547 119.003 29.208L124.851 39H120.227ZM111.829 26.454H116.113C117.564 26.454 118.652 26.0913 119.377 25.366C120.125 24.6407 120.499 23.666 120.499 22.442C120.499 21.218 120.137 20.266 119.411 19.586C118.686 18.8833 117.587 18.532 116.113 18.532H111.829V26.454ZM137.562 39.306C135.794 39.306 134.196 38.9093 132.768 38.116C131.34 37.3 130.218 36.1667 129.402 34.716C128.586 33.2427 128.178 31.5427 128.178 29.616C128.178 27.712 128.597 26.0233 129.436 24.55C130.274 23.0767 131.419 21.9433 132.87 21.15C134.32 20.3567 135.941 19.96 137.732 19.96C139.522 19.96 141.143 20.3567 142.594 21.15C144.044 21.9433 145.189 23.0767 146.028 24.55C146.866 26.0233 147.286 27.712 147.286 29.616C147.286 31.52 146.855 33.2087 145.994 34.682C145.132 36.1553 143.954 37.3 142.458 38.116C140.984 38.9093 139.352 39.306 137.562 39.306ZM137.562 35.94C138.559 35.94 139.488 35.702 140.35 35.226C141.234 34.75 141.948 34.036 142.492 33.084C143.036 32.132 143.308 30.976 143.308 29.616C143.308 28.256 143.047 27.1113 142.526 26.182C142.004 25.23 141.313 24.516 140.452 24.04C139.59 23.564 138.661 23.326 137.664 23.326C136.666 23.326 135.737 23.564 134.876 24.04C134.037 24.516 133.368 25.23 132.87 26.182C132.371 27.1113 132.122 28.256 132.122 29.616C132.122 31.6333 132.632 33.1973 133.652 34.308C134.694 35.396 135.998 35.94 137.562 35.94ZM149.825 29.616C149.825 27.6893 150.211 26.0007 150.981 24.55C151.775 23.0767 152.863 21.9433 154.245 21.15C155.628 20.3567 157.215 19.96 159.005 19.96C161.272 19.96 163.142 20.504 164.615 21.592C166.111 22.6573 167.12 24.1873 167.641 26.182H163.459C163.119 25.2527 162.575 24.5273 161.827 24.006C161.079 23.4847 160.139 23.224 159.005 23.224C157.419 23.224 156.149 23.7907 155.197 24.924C154.268 26.0347 153.803 27.5987 153.803 29.616C153.803 31.6333 154.268 33.2087 155.197 34.342C156.149 35.4753 157.419 36.042 159.005 36.042C161.249 36.042 162.734 35.056 163.459 33.084H167.641C167.097 34.988 166.077 36.5067 164.581 37.64C163.085 38.7507 161.227 39.306 159.005 39.306C157.215 39.306 155.628 38.9093 154.245 38.116C152.863 37.3 151.775 36.1667 150.981 34.716C150.211 33.2427 149.825 31.5427 149.825 29.616ZM178.916 29.65L187.552 39H182.316L175.38 30.942V39H171.504V13.84H175.38V28.46L182.18 20.266H187.552L178.916 29.65ZM207.5 29.174C207.5 29.8767 207.455 30.5113 207.364 31.078H193.05C193.164 32.574 193.719 33.7753 194.716 34.682C195.714 35.5887 196.938 36.042 198.388 36.042C200.474 36.042 201.947 35.1693 202.808 33.424H206.99C206.424 35.1467 205.392 36.5633 203.896 37.674C202.423 38.762 200.587 39.306 198.388 39.306C196.598 39.306 194.988 38.9093 193.56 38.116C192.155 37.3 191.044 36.1667 190.228 34.716C189.435 33.2427 189.038 31.5427 189.038 29.616C189.038 27.6893 189.424 26.0007 190.194 24.55C190.988 23.0767 192.087 21.9433 193.492 21.15C194.92 20.3567 196.552 19.96 198.388 19.96C200.156 19.96 201.732 20.3453 203.114 21.116C204.497 21.8867 205.574 22.9747 206.344 24.38C207.115 25.7627 207.5 27.3607 207.5 29.174ZM203.454 27.95C203.432 26.522 202.922 25.3773 201.924 24.516C200.927 23.6547 199.692 23.224 198.218 23.224C196.881 23.224 195.736 23.6547 194.784 24.516C193.832 25.3547 193.266 26.4993 193.084 27.95H203.454ZM215.837 23.428V33.798C215.837 34.5007 215.995 35.0107 216.313 35.328C216.653 35.6227 217.219 35.77 218.013 35.77H220.393V39H217.333C215.587 39 214.25 38.592 213.321 37.776C212.391 36.96 211.927 35.634 211.927 33.798V23.428H209.717V20.266H211.927V15.608H215.837V20.266H220.393V23.428H215.837Z" fill="url(#paint0_linear)"/>
<defs>
<linearGradient id="paint0_linear" x1="143.105" y1="2" x2="143.105" y2="53" gradientUnits="userSpaceOnUse">
<stop stop-color="white"/>
<stop offset="1" stop-color="white"/>
</linearGradient>
</defs>
</svg>
